<svg xmlns="http://www.w3.org/2000/svg" viewBox="0 0 64 64" fill="none">
  <defs>
    <linearGradient id="g" x1="10" y1="8" x2="56" y2="56" gradientUnits="userSpaceOnUse">
      <stop offset="0" stop-color="#2563EB"/>
      <stop offset="1" stop-color="#06B6D4"/>
    </linearGradient>
  </defs>
  <rect x="6" y="6" width="52" height="52" rx="14" fill="url(#g)"/>
  <path d="M24 13a2 2 0 1 1 4 0v3h8v-3a2 2 0 1 1 4 0v3h2a6 6 0 0 1 6 6v20a6 6 0 0 1-6 6H22a6 6 0 0 1-6-6V22a6 6 0 0 1 6-6h2v-3Zm18 13H22v16a2 2 0 0 0 2 2h16a2 2 0 0 0 2-2V26Z" fill="white"/>
</svg>
